G04 #@! TF.FileFunction,Legend,Top*
%FSLAX46Y46*%
G04 Gerber Fmt 4.6, Leading zero omitted, Abs format (unit mm)*
G04 Created by KiCad (PCBNEW 4.0.2-stable) date viernes, 29 '29e' abril '29e' 2016, 11:45:47*
%MOMM*%
G01*
G04 APERTURE LIST*
%ADD10C,0.100000*%
%ADD11C,0.300000*%
%ADD12C,0.150000*%
%ADD13C,0.152400*%
G04 APERTURE END LIST*
D10*
D11*
X113800597Y-88417193D02*
X113729971Y-88344970D01*
X113660143Y-88201324D01*
X113664135Y-87844203D01*
X113737156Y-87702153D01*
X113809379Y-87631527D01*
X113953026Y-87561701D01*
X114095874Y-87563298D01*
X114309348Y-87637116D01*
X115156855Y-88503787D01*
X115167235Y-87575274D01*
X114181670Y-86278462D02*
X115181607Y-86289641D01*
X113606285Y-86629196D02*
X114673654Y-86998293D01*
X114684034Y-86069779D01*
X115119765Y-85431754D02*
X115191188Y-85432552D01*
X115333239Y-85505572D01*
X115403864Y-85577795D01*
X115199173Y-84718311D02*
X115202366Y-84432614D01*
X115132540Y-84288967D01*
X115061914Y-84216745D01*
X114849239Y-84071501D01*
X114564340Y-83996883D01*
X113992948Y-83990496D01*
X113849301Y-84060322D01*
X113777079Y-84130949D01*
X113704057Y-84272998D01*
X113700863Y-84558694D01*
X113770691Y-84702342D01*
X113841317Y-84774564D01*
X113983367Y-84847585D01*
X114340487Y-84851577D01*
X114484134Y-84781750D01*
X114556356Y-84711125D01*
X114629377Y-84569074D01*
X114632571Y-84283378D01*
X114562743Y-84139731D01*
X114492118Y-84067508D01*
X114350069Y-83994488D01*
X115215142Y-83289829D02*
X115218335Y-83004132D01*
X115148509Y-82860485D01*
X115077883Y-82788263D01*
X114865208Y-82643019D01*
X114580309Y-82568402D01*
X114008917Y-82562014D01*
X113865270Y-82631841D01*
X113793047Y-82702467D01*
X113720026Y-82844516D01*
X113716832Y-83130213D01*
X113786660Y-83273860D01*
X113857286Y-83346082D01*
X113999336Y-83419104D01*
X114356456Y-83423096D01*
X114500103Y-83353268D01*
X114572325Y-83282643D01*
X114645346Y-83140592D01*
X114648540Y-82854896D01*
X114578712Y-82711250D01*
X114508087Y-82639027D01*
X114366037Y-82566006D01*
X113738390Y-81201762D02*
X113730406Y-81916003D01*
X114443849Y-81995412D01*
X114373223Y-81923189D01*
X114303396Y-81779543D01*
X114307388Y-81422422D01*
X114380409Y-81280373D01*
X114452631Y-81209747D01*
X114596278Y-81139920D01*
X114953399Y-81143912D01*
X115095448Y-81216932D01*
X115166074Y-81289155D01*
X115235901Y-81432802D01*
X115231909Y-81789923D01*
X115158888Y-81931972D01*
X115086665Y-82002598D01*
X115246281Y-80504289D02*
X114246343Y-80493111D01*
X114389192Y-80494708D02*
X114318566Y-80422486D01*
X114248738Y-80278838D01*
X114251134Y-80064567D01*
X114324155Y-79922517D01*
X114467802Y-79852689D01*
X115253467Y-79861472D01*
X114467802Y-79852689D02*
X114325752Y-79779668D01*
X114255924Y-79636021D01*
X114258320Y-79421750D01*
X114331341Y-79279699D01*
X114474988Y-79209872D01*
X115260653Y-79218655D01*
X115268637Y-78504414D02*
X114268699Y-78493236D01*
X114411549Y-78494833D02*
X114340922Y-78422611D01*
X114271095Y-78278963D01*
X114273490Y-78064692D01*
X114346512Y-77922642D01*
X114490158Y-77852814D01*
X115275823Y-77861597D01*
X114490158Y-77852814D02*
X114348108Y-77779793D01*
X114278281Y-77636146D01*
X114280676Y-77421875D01*
X114353698Y-77279824D01*
X114497344Y-77209997D01*
X115283009Y-77218780D01*
X115752418Y-95294166D02*
X116031818Y-70300566D01*
X118618000Y-95326200D02*
X113052587Y-95263985D01*
X118897400Y-70332600D02*
X113331987Y-70270385D01*
X116031818Y-70300566D02*
X116605610Y-71433554D01*
X116031818Y-70300566D02*
X115432842Y-71420444D01*
X115752418Y-95294166D02*
X116351394Y-94174288D01*
X115752418Y-95294166D02*
X115178626Y-94161178D01*
X164948204Y-109336880D02*
X164805733Y-109264682D01*
X164734691Y-109192869D01*
X164664033Y-109049629D01*
X164664418Y-108978202D01*
X164736615Y-108835732D01*
X164808427Y-108764689D01*
X164951668Y-108694031D01*
X165237378Y-108695571D01*
X165379848Y-108767768D01*
X165450891Y-108839581D01*
X165521548Y-108982821D01*
X165521163Y-109054248D01*
X165448967Y-109196718D01*
X165377154Y-109267761D01*
X165233914Y-109338419D01*
X164948204Y-109336880D01*
X164804963Y-109407537D01*
X164733151Y-109478580D01*
X164660954Y-109621050D01*
X164659414Y-109906760D01*
X164730072Y-110050000D01*
X164801114Y-110121813D01*
X164943585Y-110194009D01*
X165229295Y-110195549D01*
X165372535Y-110124892D01*
X165444348Y-110053849D01*
X165516545Y-109911379D01*
X165518084Y-109625669D01*
X165447427Y-109482429D01*
X165376384Y-109410616D01*
X165233914Y-109338419D01*
X166229280Y-110200937D02*
X166514991Y-110202477D01*
X166658230Y-110131820D01*
X166730042Y-110060777D01*
X166874053Y-109847265D01*
X166947019Y-109561939D01*
X166950098Y-108990519D01*
X166879441Y-108847279D01*
X166808398Y-108775466D01*
X166665928Y-108703269D01*
X166380218Y-108701729D01*
X166236977Y-108772387D01*
X166165166Y-108843430D01*
X166092968Y-108985900D01*
X166091043Y-109343038D01*
X166161702Y-109486278D01*
X166232744Y-109558090D01*
X166375215Y-109630287D01*
X166660925Y-109631827D01*
X166804164Y-109561169D01*
X166875977Y-109490127D01*
X166948174Y-109347657D01*
X167658215Y-110137208D02*
X167657830Y-110208635D01*
X167585633Y-110351106D01*
X167513820Y-110422148D01*
X169023037Y-108715970D02*
X168308761Y-108712121D01*
X168233484Y-109426012D01*
X168305297Y-109354970D01*
X168448537Y-109284311D01*
X168805675Y-109286236D01*
X168948145Y-109358434D01*
X169019188Y-109430246D01*
X169089845Y-109573485D01*
X169087921Y-109930623D01*
X169015724Y-110073093D01*
X168943911Y-110144136D01*
X168800671Y-110214793D01*
X168443534Y-110212869D01*
X168301063Y-110140672D01*
X168230020Y-110068859D01*
X170380159Y-108723283D02*
X170094449Y-108721743D01*
X169951210Y-108792401D01*
X169879397Y-108863445D01*
X169735387Y-109076957D01*
X169662420Y-109362283D01*
X169659340Y-109933702D01*
X169729999Y-110076942D01*
X169801041Y-110148755D01*
X169943512Y-110220952D01*
X170229222Y-110222491D01*
X170372461Y-110151834D01*
X170444274Y-110080791D01*
X170516471Y-109938321D01*
X170518395Y-109581183D01*
X170447738Y-109437943D01*
X170376695Y-109366131D01*
X170234225Y-109293934D01*
X169948515Y-109292394D01*
X169805274Y-109363052D01*
X169733463Y-109434094D01*
X169661265Y-109576564D01*
X171093664Y-108869988D02*
X171165477Y-108798945D01*
X171308717Y-108728286D01*
X171665855Y-108730211D01*
X171808325Y-108802409D01*
X171879368Y-108874221D01*
X171950025Y-109017461D01*
X171949255Y-109160316D01*
X171876673Y-109374214D01*
X171014924Y-110226725D01*
X171943482Y-110231729D01*
X172586329Y-110235193D02*
X172591718Y-109235207D01*
X172590948Y-109378063D02*
X172662760Y-109307020D01*
X172806001Y-109236362D01*
X173020283Y-109237516D01*
X173162753Y-109309714D01*
X173233411Y-109452954D01*
X173229177Y-110238657D01*
X173233411Y-109452954D02*
X173305609Y-109310484D01*
X173448848Y-109239826D01*
X173663130Y-109240981D01*
X173805601Y-109313178D01*
X173876258Y-109456418D01*
X173872025Y-110242121D01*
X174586300Y-110245970D02*
X174591689Y-109245984D01*
X174590919Y-109388840D02*
X174662731Y-109317797D01*
X174805972Y-109247139D01*
X175020254Y-109248293D01*
X175162724Y-109320491D01*
X175233382Y-109463731D01*
X175229148Y-110249434D01*
X175233382Y-109463731D02*
X175305580Y-109321261D01*
X175448819Y-109250603D01*
X175663101Y-109251757D01*
X175805572Y-109323955D01*
X175876229Y-109467195D01*
X175871996Y-110252898D01*
X215091780Y-108435635D02*
X125531380Y-107953035D01*
X215112600Y-104571800D02*
X215077231Y-111135596D01*
X125552200Y-104089200D02*
X125516831Y-110652996D01*
X125531380Y-107953035D02*
X126661027Y-107372693D01*
X125531380Y-107953035D02*
X126654707Y-108545517D01*
X215091780Y-108435635D02*
X213968453Y-107843153D01*
X215091780Y-108435635D02*
X213962133Y-109015977D01*
D12*
X173131000Y-77267400D02*
X173131000Y-75717400D01*
X171831000Y-77267400D02*
X173131000Y-77267400D01*
X167640000Y-75844400D02*
X161798000Y-75844400D01*
X161798000Y-75844400D02*
X161798000Y-75590400D01*
X161798000Y-75590400D02*
X167640000Y-75590400D01*
X167640000Y-75590400D02*
X167640000Y-75717400D01*
X167640000Y-75717400D02*
X161798000Y-75717400D01*
X170307000Y-75971400D02*
X170688000Y-75971400D01*
X170307000Y-75463400D02*
X170688000Y-75463400D01*
X170307000Y-73431400D02*
X170688000Y-73431400D01*
X170307000Y-72923400D02*
X170688000Y-72923400D01*
X170307000Y-76987400D02*
X167767000Y-76987400D01*
X170307000Y-74447400D02*
X167767000Y-74447400D01*
X170307000Y-74447400D02*
X170307000Y-71907400D01*
X170307000Y-71907400D02*
X167767000Y-71907400D01*
X167767000Y-73431400D02*
X161671000Y-73431400D01*
X161671000Y-73431400D02*
X161671000Y-72923400D01*
X161671000Y-72923400D02*
X167767000Y-72923400D01*
X167767000Y-71907400D02*
X167767000Y-74447400D01*
X167767000Y-74447400D02*
X167767000Y-76987400D01*
X161671000Y-75463400D02*
X167767000Y-75463400D01*
X161671000Y-75971400D02*
X161671000Y-75463400D01*
X167767000Y-75971400D02*
X161671000Y-75971400D01*
X170307000Y-74447400D02*
X167767000Y-74447400D01*
X170307000Y-76987400D02*
X170307000Y-74447400D01*
X126263000Y-88925400D02*
X126263000Y-76225400D01*
X126263000Y-76225400D02*
X128803000Y-76225400D01*
X128803000Y-76225400D02*
X128803000Y-88925400D01*
X125983000Y-91745400D02*
X125983000Y-90195400D01*
X126263000Y-88925400D02*
X128803000Y-88925400D01*
X129083000Y-90195400D02*
X129083000Y-91745400D01*
X129083000Y-91745400D02*
X125983000Y-91745400D01*
X174163000Y-71551200D02*
X174163000Y-73101200D01*
X175463000Y-71551200D02*
X174163000Y-71551200D01*
X179654000Y-72974200D02*
X185496000Y-72974200D01*
X185496000Y-72974200D02*
X185496000Y-73228200D01*
X185496000Y-73228200D02*
X179654000Y-73228200D01*
X179654000Y-73228200D02*
X179654000Y-73101200D01*
X179654000Y-73101200D02*
X185496000Y-73101200D01*
X176987000Y-72847200D02*
X176606000Y-72847200D01*
X176987000Y-73355200D02*
X176606000Y-73355200D01*
X176987000Y-75387200D02*
X176606000Y-75387200D01*
X176987000Y-75895200D02*
X176606000Y-75895200D01*
X176987000Y-71831200D02*
X179527000Y-71831200D01*
X176987000Y-74371200D02*
X179527000Y-74371200D01*
X176987000Y-74371200D02*
X176987000Y-76911200D01*
X176987000Y-76911200D02*
X179527000Y-76911200D01*
X179527000Y-75387200D02*
X185623000Y-75387200D01*
X185623000Y-75387200D02*
X185623000Y-75895200D01*
X185623000Y-75895200D02*
X179527000Y-75895200D01*
X179527000Y-76911200D02*
X179527000Y-74371200D01*
X179527000Y-74371200D02*
X179527000Y-71831200D01*
X185623000Y-73355200D02*
X179527000Y-73355200D01*
X185623000Y-72847200D02*
X185623000Y-73355200D01*
X179527000Y-72847200D02*
X185623000Y-72847200D01*
X176987000Y-74371200D02*
X179527000Y-74371200D01*
X176987000Y-71831200D02*
X176987000Y-74371200D01*
X211684000Y-88874600D02*
X211684000Y-76174600D01*
X211684000Y-76174600D02*
X214224000Y-76174600D01*
X214224000Y-76174600D02*
X214224000Y-88874600D01*
X211404000Y-91694600D02*
X211404000Y-90144600D01*
X211684000Y-88874600D02*
X214224000Y-88874600D01*
X214504000Y-90144600D02*
X214504000Y-91694600D01*
X214504000Y-91694600D02*
X211404000Y-91694600D01*
X154229000Y-95072200D02*
X126289000Y-95072200D01*
X126289000Y-95072200D02*
X126289000Y-92532200D01*
X126289000Y-92532200D02*
X154229000Y-92532200D01*
X157049000Y-95352200D02*
X155499000Y-95352200D01*
X154229000Y-95072200D02*
X154229000Y-92532200D01*
X155499000Y-92252200D02*
X157049000Y-92252200D01*
X157049000Y-92252200D02*
X157049000Y-95352200D01*
X154940000Y-88900000D02*
X154940000Y-83820000D01*
X154940000Y-83820000D02*
X152400000Y-83820000D01*
X152400000Y-83820000D02*
X152400000Y-88900000D01*
X152120000Y-91720000D02*
X152120000Y-90170000D01*
X152400000Y-88900000D02*
X154940000Y-88900000D01*
X155220000Y-90170000D02*
X155220000Y-91720000D01*
X155220000Y-91720000D02*
X152120000Y-91720000D01*
X195148000Y-95148400D02*
X177368000Y-95148400D01*
X177368000Y-95148400D02*
X177368000Y-92608400D01*
X177368000Y-92608400D02*
X195148000Y-92608400D01*
X197968000Y-95428400D02*
X196418000Y-95428400D01*
X195148000Y-95148400D02*
X195148000Y-92608400D01*
X196418000Y-92328400D02*
X197968000Y-92328400D01*
X197968000Y-92328400D02*
X197968000Y-95428400D01*
X139217000Y-74498200D02*
X136169000Y-74498200D01*
X136169000Y-74498200D02*
X136169000Y-81610200D01*
X136169000Y-81610200D02*
X139217000Y-81610200D01*
X142265000Y-74498200D02*
X143027000Y-74498200D01*
X143027000Y-74498200D02*
X145313000Y-76022200D01*
X145313000Y-76022200D02*
X145313000Y-80086200D01*
X145313000Y-80086200D02*
X143027000Y-81610200D01*
X143027000Y-81610200D02*
X142265000Y-81610200D01*
X192775000Y-91512600D02*
X192775000Y-91177600D01*
X185025000Y-91512600D02*
X185025000Y-91177600D01*
X185025000Y-78362600D02*
X185025000Y-78697600D01*
X192775000Y-78362600D02*
X192775000Y-78697600D01*
X192775000Y-91512600D02*
X185025000Y-91512600D01*
X192775000Y-78362600D02*
X185025000Y-78362600D01*
X192775000Y-91177600D02*
X194575000Y-91177600D01*
D13*
X175006000Y-79121000D02*
X175006000Y-78359000D01*
X175006000Y-78359000D02*
X159004000Y-78359000D01*
X159004000Y-78359000D02*
X159004000Y-79121000D01*
D12*
X208693000Y-81596000D02*
X208348000Y-81596000D01*
X208693000Y-89346000D02*
X208348000Y-89346000D01*
X196793000Y-89346000D02*
X197138000Y-89346000D01*
X196793000Y-81596000D02*
X197138000Y-81596000D01*
X208693000Y-81596000D02*
X208693000Y-89346000D01*
X196793000Y-81596000D02*
X196793000Y-89346000D01*
X208348000Y-81596000D02*
X208348000Y-79771000D01*
X211734000Y-95148400D02*
X199034000Y-95148400D01*
X199034000Y-95148400D02*
X199034000Y-92608400D01*
X199034000Y-92608400D02*
X211734000Y-92608400D01*
X214554000Y-95428400D02*
X213004000Y-95428400D01*
X211734000Y-95148400D02*
X211734000Y-92608400D01*
X213004000Y-92328400D02*
X214554000Y-92328400D01*
X214554000Y-92328400D02*
X214554000Y-95428400D01*
X140024000Y-84405800D02*
X140024000Y-84980800D01*
X145574000Y-84405800D02*
X145574000Y-84980800D01*
X145574000Y-90955800D02*
X145574000Y-90380800D01*
X140024000Y-90955800D02*
X140024000Y-90380800D01*
X140024000Y-84405800D02*
X145574000Y-84405800D01*
X140024000Y-90955800D02*
X145574000Y-90955800D01*
X140024000Y-84980800D02*
X138749000Y-84980800D01*
X205834180Y-78762860D02*
X205834180Y-75364340D01*
X197584260Y-75364340D02*
X203583740Y-75364340D01*
X197584260Y-78762860D02*
X203583740Y-78762860D01*
X206337100Y-79766160D02*
X206337100Y-78666340D01*
X206936540Y-79265780D02*
X205737660Y-79265780D01*
X184819000Y-76184000D02*
X184819000Y-74184000D01*
X182769000Y-74184000D02*
X182769000Y-76184000D01*
X131461000Y-82559000D02*
X133461000Y-82559000D01*
X133461000Y-80509000D02*
X131461000Y-80509000D01*
X185309000Y-74184000D02*
X185309000Y-76184000D01*
X187359000Y-76184000D02*
X187359000Y-74184000D01*
X177994000Y-86656600D02*
X179994000Y-86656600D01*
X179994000Y-88806600D02*
X177994000Y-88806600D01*
X177994000Y-89399800D02*
X179994000Y-89399800D01*
X179994000Y-91549800D02*
X177994000Y-91549800D01*
X189949400Y-74082400D02*
X189949400Y-76082400D01*
X187799400Y-76082400D02*
X187799400Y-74082400D01*
X192489400Y-74082400D02*
X192489400Y-76082400D01*
X190339400Y-76082400D02*
X190339400Y-74082400D01*
X156015000Y-79010000D02*
X156015000Y-81010000D01*
X153865000Y-81010000D02*
X153865000Y-79010000D01*
X152809000Y-80876400D02*
X152609000Y-80876400D01*
X146809000Y-80876400D02*
X147009000Y-80876400D01*
X146809000Y-74876400D02*
X147009000Y-74876400D01*
X152809000Y-74876400D02*
X152609000Y-74876400D01*
X151009000Y-74876400D02*
X148609000Y-74876400D01*
X151009000Y-80876400D02*
X148609000Y-80876400D01*
X152809000Y-80876400D02*
X152809000Y-74876400D01*
X146809000Y-74876400D02*
X146809000Y-80876400D01*
X151509000Y-77876400D02*
G75*
G03X151509000Y-77876400I-1700000J0D01*
G01*
X161163000Y-71704200D02*
X161163000Y-74244200D01*
X161163000Y-74244200D02*
X153543000Y-74244200D01*
X153543000Y-74244200D02*
X153543000Y-71704200D01*
X153543000Y-71704200D02*
X161163000Y-71704200D01*
X158623000Y-74244200D02*
X158623000Y-71704200D01*
X159740480Y-75948540D02*
X158343480Y-75948540D01*
X164185480Y-75948540D02*
X165709480Y-75948540D01*
X163804480Y-76710540D02*
X163804480Y-75186540D01*
X164058480Y-76710540D02*
X164058480Y-75186540D01*
X164312480Y-75948540D02*
X164312480Y-75186540D01*
X164312480Y-75186540D02*
X159740480Y-75186540D01*
X159740480Y-75186540D02*
X159740480Y-76710540D01*
X159740480Y-76710540D02*
X164312480Y-76710540D01*
X164312480Y-76710540D02*
X164312480Y-75948540D01*
X165695524Y-86964781D02*
X165695524Y-85964781D01*
X166076477Y-85964781D01*
X166171715Y-86012400D01*
X166219334Y-86060019D01*
X166266953Y-86155257D01*
X166266953Y-86298114D01*
X166219334Y-86393352D01*
X166171715Y-86440971D01*
X166076477Y-86488590D01*
X165695524Y-86488590D01*
X167219334Y-86964781D02*
X166647905Y-86964781D01*
X166933619Y-86964781D02*
X166933619Y-85964781D01*
X166838381Y-86107638D01*
X166743143Y-86202876D01*
X166647905Y-86250495D01*
X167838381Y-85964781D02*
X167933620Y-85964781D01*
X168028858Y-86012400D01*
X168076477Y-86060019D01*
X168124096Y-86155257D01*
X168171715Y-86345733D01*
X168171715Y-86583829D01*
X168124096Y-86774305D01*
X168076477Y-86869543D01*
X168028858Y-86917162D01*
X167933620Y-86964781D01*
X167838381Y-86964781D01*
X167743143Y-86917162D01*
X167695524Y-86869543D01*
X167647905Y-86774305D01*
X167600286Y-86583829D01*
X167600286Y-86345733D01*
X167647905Y-86155257D01*
X167695524Y-86060019D01*
X167743143Y-86012400D01*
X167838381Y-85964781D01*
X169124096Y-86964781D02*
X168552667Y-86964781D01*
X168838381Y-86964781D02*
X168838381Y-85964781D01*
X168743143Y-86107638D01*
X168647905Y-86202876D01*
X168552667Y-86250495D01*
X125842524Y-95747781D02*
X125842524Y-94747781D01*
X126223477Y-94747781D01*
X126318715Y-94795400D01*
X126366334Y-94843019D01*
X126413953Y-94938257D01*
X126413953Y-95081114D01*
X126366334Y-95176352D01*
X126318715Y-95223971D01*
X126223477Y-95271590D01*
X125842524Y-95271590D01*
X127366334Y-95747781D02*
X126794905Y-95747781D01*
X127080619Y-95747781D02*
X127080619Y-94747781D01*
X126985381Y-94890638D01*
X126890143Y-94985876D01*
X126794905Y-95033495D01*
X127985381Y-94747781D02*
X128080620Y-94747781D01*
X128175858Y-94795400D01*
X128223477Y-94843019D01*
X128271096Y-94938257D01*
X128318715Y-95128733D01*
X128318715Y-95366829D01*
X128271096Y-95557305D01*
X128223477Y-95652543D01*
X128175858Y-95700162D01*
X128080620Y-95747781D01*
X127985381Y-95747781D01*
X127890143Y-95700162D01*
X127842524Y-95652543D01*
X127794905Y-95557305D01*
X127747286Y-95366829D01*
X127747286Y-95128733D01*
X127794905Y-94938257D01*
X127842524Y-94843019D01*
X127890143Y-94795400D01*
X127985381Y-94747781D01*
X128699667Y-94843019D02*
X128747286Y-94795400D01*
X128842524Y-94747781D01*
X129080620Y-94747781D01*
X129175858Y-94795400D01*
X129223477Y-94843019D01*
X129271096Y-94938257D01*
X129271096Y-95033495D01*
X129223477Y-95176352D01*
X128652048Y-95747781D01*
X129271096Y-95747781D01*
X173772524Y-68453581D02*
X173772524Y-67453581D01*
X174153477Y-67453581D01*
X174248715Y-67501200D01*
X174296334Y-67548819D01*
X174343953Y-67644057D01*
X174343953Y-67786914D01*
X174296334Y-67882152D01*
X174248715Y-67929771D01*
X174153477Y-67977390D01*
X173772524Y-67977390D01*
X175296334Y-68453581D02*
X174724905Y-68453581D01*
X175010619Y-68453581D02*
X175010619Y-67453581D01*
X174915381Y-67596438D01*
X174820143Y-67691676D01*
X174724905Y-67739295D01*
X175915381Y-67453581D02*
X176010620Y-67453581D01*
X176105858Y-67501200D01*
X176153477Y-67548819D01*
X176201096Y-67644057D01*
X176248715Y-67834533D01*
X176248715Y-68072629D01*
X176201096Y-68263105D01*
X176153477Y-68358343D01*
X176105858Y-68405962D01*
X176010620Y-68453581D01*
X175915381Y-68453581D01*
X175820143Y-68405962D01*
X175772524Y-68358343D01*
X175724905Y-68263105D01*
X175677286Y-68072629D01*
X175677286Y-67834533D01*
X175724905Y-67644057D01*
X175772524Y-67548819D01*
X175820143Y-67501200D01*
X175915381Y-67453581D01*
X176582048Y-67453581D02*
X177201096Y-67453581D01*
X176867762Y-67834533D01*
X177010620Y-67834533D01*
X177105858Y-67882152D01*
X177153477Y-67929771D01*
X177201096Y-68025010D01*
X177201096Y-68263105D01*
X177153477Y-68358343D01*
X177105858Y-68405962D01*
X177010620Y-68453581D01*
X176724905Y-68453581D01*
X176629667Y-68405962D01*
X176582048Y-68358343D01*
X211263524Y-95696981D02*
X211263524Y-94696981D01*
X211644477Y-94696981D01*
X211739715Y-94744600D01*
X211787334Y-94792219D01*
X211834953Y-94887457D01*
X211834953Y-95030314D01*
X211787334Y-95125552D01*
X211739715Y-95173171D01*
X211644477Y-95220790D01*
X211263524Y-95220790D01*
X212787334Y-95696981D02*
X212215905Y-95696981D01*
X212501619Y-95696981D02*
X212501619Y-94696981D01*
X212406381Y-94839838D01*
X212311143Y-94935076D01*
X212215905Y-94982695D01*
X213406381Y-94696981D02*
X213501620Y-94696981D01*
X213596858Y-94744600D01*
X213644477Y-94792219D01*
X213692096Y-94887457D01*
X213739715Y-95077933D01*
X213739715Y-95316029D01*
X213692096Y-95506505D01*
X213644477Y-95601743D01*
X213596858Y-95649362D01*
X213501620Y-95696981D01*
X213406381Y-95696981D01*
X213311143Y-95649362D01*
X213263524Y-95601743D01*
X213215905Y-95506505D01*
X213168286Y-95316029D01*
X213168286Y-95077933D01*
X213215905Y-94887457D01*
X213263524Y-94792219D01*
X213311143Y-94744600D01*
X213406381Y-94696981D01*
X214596858Y-95030314D02*
X214596858Y-95696981D01*
X214358762Y-94649362D02*
X214120667Y-95363648D01*
X214739715Y-95363648D01*
X161051381Y-95492676D02*
X160051381Y-95492676D01*
X160051381Y-95111723D01*
X160099000Y-95016485D01*
X160146619Y-94968866D01*
X160241857Y-94921247D01*
X160384714Y-94921247D01*
X160479952Y-94968866D01*
X160527571Y-95016485D01*
X160575190Y-95111723D01*
X160575190Y-95492676D01*
X161051381Y-93968866D02*
X161051381Y-94540295D01*
X161051381Y-94254581D02*
X160051381Y-94254581D01*
X160194238Y-94349819D01*
X160289476Y-94445057D01*
X160337095Y-94540295D01*
X160051381Y-93349819D02*
X160051381Y-93254580D01*
X160099000Y-93159342D01*
X160146619Y-93111723D01*
X160241857Y-93064104D01*
X160432333Y-93016485D01*
X160670429Y-93016485D01*
X160860905Y-93064104D01*
X160956143Y-93111723D01*
X161003762Y-93159342D01*
X161051381Y-93254580D01*
X161051381Y-93349819D01*
X161003762Y-93445057D01*
X160956143Y-93492676D01*
X160860905Y-93540295D01*
X160670429Y-93587914D01*
X160432333Y-93587914D01*
X160241857Y-93540295D01*
X160146619Y-93492676D01*
X160099000Y-93445057D01*
X160051381Y-93349819D01*
X160051381Y-92111723D02*
X160051381Y-92587914D01*
X160527571Y-92635533D01*
X160479952Y-92587914D01*
X160432333Y-92492676D01*
X160432333Y-92254580D01*
X160479952Y-92159342D01*
X160527571Y-92111723D01*
X160622810Y-92064104D01*
X160860905Y-92064104D01*
X160956143Y-92111723D01*
X161003762Y-92159342D01*
X161051381Y-92254580D01*
X161051381Y-92492676D01*
X161003762Y-92587914D01*
X160956143Y-92635533D01*
X151979524Y-95722381D02*
X151979524Y-94722381D01*
X152360477Y-94722381D01*
X152455715Y-94770000D01*
X152503334Y-94817619D01*
X152550953Y-94912857D01*
X152550953Y-95055714D01*
X152503334Y-95150952D01*
X152455715Y-95198571D01*
X152360477Y-95246190D01*
X151979524Y-95246190D01*
X153503334Y-95722381D02*
X152931905Y-95722381D01*
X153217619Y-95722381D02*
X153217619Y-94722381D01*
X153122381Y-94865238D01*
X153027143Y-94960476D01*
X152931905Y-95008095D01*
X154122381Y-94722381D02*
X154217620Y-94722381D01*
X154312858Y-94770000D01*
X154360477Y-94817619D01*
X154408096Y-94912857D01*
X154455715Y-95103333D01*
X154455715Y-95341429D01*
X154408096Y-95531905D01*
X154360477Y-95627143D01*
X154312858Y-95674762D01*
X154217620Y-95722381D01*
X154122381Y-95722381D01*
X154027143Y-95674762D01*
X153979524Y-95627143D01*
X153931905Y-95531905D01*
X153884286Y-95341429D01*
X153884286Y-95103333D01*
X153931905Y-94912857D01*
X153979524Y-94817619D01*
X154027143Y-94770000D01*
X154122381Y-94722381D01*
X155312858Y-94722381D02*
X155122381Y-94722381D01*
X155027143Y-94770000D01*
X154979524Y-94817619D01*
X154884286Y-94960476D01*
X154836667Y-95150952D01*
X154836667Y-95531905D01*
X154884286Y-95627143D01*
X154931905Y-95674762D01*
X155027143Y-95722381D01*
X155217620Y-95722381D01*
X155312858Y-95674762D01*
X155360477Y-95627143D01*
X155408096Y-95531905D01*
X155408096Y-95293810D01*
X155360477Y-95198571D01*
X155312858Y-95150952D01*
X155217620Y-95103333D01*
X155027143Y-95103333D01*
X154931905Y-95150952D01*
X154884286Y-95198571D01*
X154836667Y-95293810D01*
X201970381Y-95568876D02*
X200970381Y-95568876D01*
X200970381Y-95187923D01*
X201018000Y-95092685D01*
X201065619Y-95045066D01*
X201160857Y-94997447D01*
X201303714Y-94997447D01*
X201398952Y-95045066D01*
X201446571Y-95092685D01*
X201494190Y-95187923D01*
X201494190Y-95568876D01*
X201970381Y-94045066D02*
X201970381Y-94616495D01*
X201970381Y-94330781D02*
X200970381Y-94330781D01*
X201113238Y-94426019D01*
X201208476Y-94521257D01*
X201256095Y-94616495D01*
X200970381Y-93426019D02*
X200970381Y-93330780D01*
X201018000Y-93235542D01*
X201065619Y-93187923D01*
X201160857Y-93140304D01*
X201351333Y-93092685D01*
X201589429Y-93092685D01*
X201779905Y-93140304D01*
X201875143Y-93187923D01*
X201922762Y-93235542D01*
X201970381Y-93330780D01*
X201970381Y-93426019D01*
X201922762Y-93521257D01*
X201875143Y-93568876D01*
X201779905Y-93616495D01*
X201589429Y-93664114D01*
X201351333Y-93664114D01*
X201160857Y-93616495D01*
X201065619Y-93568876D01*
X201018000Y-93521257D01*
X200970381Y-93426019D01*
X200970381Y-92759352D02*
X200970381Y-92092685D01*
X201970381Y-92521257D01*
X140955381Y-78816105D02*
X141764905Y-78816105D01*
X141860143Y-78768486D01*
X141907762Y-78720867D01*
X141955381Y-78625629D01*
X141955381Y-78435152D01*
X141907762Y-78339914D01*
X141860143Y-78292295D01*
X141764905Y-78244676D01*
X140955381Y-78244676D01*
X141955381Y-77244676D02*
X141955381Y-77816105D01*
X141955381Y-77530391D02*
X140955381Y-77530391D01*
X141098238Y-77625629D01*
X141193476Y-77720867D01*
X141241095Y-77816105D01*
X187185714Y-91889981D02*
X187185714Y-92699505D01*
X187233333Y-92794743D01*
X187280952Y-92842362D01*
X187376190Y-92889981D01*
X187566667Y-92889981D01*
X187661905Y-92842362D01*
X187709524Y-92794743D01*
X187757143Y-92699505D01*
X187757143Y-91889981D01*
X188757143Y-92889981D02*
X188185714Y-92889981D01*
X188471428Y-92889981D02*
X188471428Y-91889981D01*
X188376190Y-92032838D01*
X188280952Y-92128076D01*
X188185714Y-92175695D01*
X189376190Y-91889981D02*
X189471429Y-91889981D01*
X189566667Y-91937600D01*
X189614286Y-91985219D01*
X189661905Y-92080457D01*
X189709524Y-92270933D01*
X189709524Y-92509029D01*
X189661905Y-92699505D01*
X189614286Y-92794743D01*
X189566667Y-92842362D01*
X189471429Y-92889981D01*
X189376190Y-92889981D01*
X189280952Y-92842362D01*
X189233333Y-92794743D01*
X189185714Y-92699505D01*
X189138095Y-92509029D01*
X189138095Y-92270933D01*
X189185714Y-92080457D01*
X189233333Y-91985219D01*
X189280952Y-91937600D01*
X189376190Y-91889981D01*
X190661905Y-92889981D02*
X190090476Y-92889981D01*
X190376190Y-92889981D02*
X190376190Y-91889981D01*
X190280952Y-92032838D01*
X190185714Y-92128076D01*
X190090476Y-92175695D01*
X165925714Y-83272381D02*
X165925714Y-84081905D01*
X165973333Y-84177143D01*
X166020952Y-84224762D01*
X166116190Y-84272381D01*
X166306667Y-84272381D01*
X166401905Y-84224762D01*
X166449524Y-84177143D01*
X166497143Y-84081905D01*
X166497143Y-83272381D01*
X167497143Y-84272381D02*
X166925714Y-84272381D01*
X167211428Y-84272381D02*
X167211428Y-83272381D01*
X167116190Y-83415238D01*
X167020952Y-83510476D01*
X166925714Y-83558095D01*
X168116190Y-83272381D02*
X168211429Y-83272381D01*
X168306667Y-83320000D01*
X168354286Y-83367619D01*
X168401905Y-83462857D01*
X168449524Y-83653333D01*
X168449524Y-83891429D01*
X168401905Y-84081905D01*
X168354286Y-84177143D01*
X168306667Y-84224762D01*
X168211429Y-84272381D01*
X168116190Y-84272381D01*
X168020952Y-84224762D01*
X167973333Y-84177143D01*
X167925714Y-84081905D01*
X167878095Y-83891429D01*
X167878095Y-83653333D01*
X167925714Y-83462857D01*
X167973333Y-83367619D01*
X168020952Y-83320000D01*
X168116190Y-83272381D01*
X168830476Y-83367619D02*
X168878095Y-83320000D01*
X168973333Y-83272381D01*
X169211429Y-83272381D01*
X169306667Y-83320000D01*
X169354286Y-83367619D01*
X169401905Y-83462857D01*
X169401905Y-83558095D01*
X169354286Y-83700952D01*
X168782857Y-84272381D01*
X169401905Y-84272381D01*
X209070381Y-87185286D02*
X209879905Y-87185286D01*
X209975143Y-87137667D01*
X210022762Y-87090048D01*
X210070381Y-86994810D01*
X210070381Y-86804333D01*
X210022762Y-86709095D01*
X209975143Y-86661476D01*
X209879905Y-86613857D01*
X209070381Y-86613857D01*
X210070381Y-85613857D02*
X210070381Y-86185286D01*
X210070381Y-85899572D02*
X209070381Y-85899572D01*
X209213238Y-85994810D01*
X209308476Y-86090048D01*
X209356095Y-86185286D01*
X209070381Y-84994810D02*
X209070381Y-84899571D01*
X209118000Y-84804333D01*
X209165619Y-84756714D01*
X209260857Y-84709095D01*
X209451333Y-84661476D01*
X209689429Y-84661476D01*
X209879905Y-84709095D01*
X209975143Y-84756714D01*
X210022762Y-84804333D01*
X210070381Y-84899571D01*
X210070381Y-84994810D01*
X210022762Y-85090048D01*
X209975143Y-85137667D01*
X209879905Y-85185286D01*
X209689429Y-85232905D01*
X209451333Y-85232905D01*
X209260857Y-85185286D01*
X209165619Y-85137667D01*
X209118000Y-85090048D01*
X209070381Y-84994810D01*
X209403714Y-83804333D02*
X210070381Y-83804333D01*
X209022762Y-84042429D02*
X209737048Y-84280524D01*
X209737048Y-83661476D01*
X218556381Y-95568876D02*
X217556381Y-95568876D01*
X217556381Y-95187923D01*
X217604000Y-95092685D01*
X217651619Y-95045066D01*
X217746857Y-94997447D01*
X217889714Y-94997447D01*
X217984952Y-95045066D01*
X218032571Y-95092685D01*
X218080190Y-95187923D01*
X218080190Y-95568876D01*
X218556381Y-94045066D02*
X218556381Y-94616495D01*
X218556381Y-94330781D02*
X217556381Y-94330781D01*
X217699238Y-94426019D01*
X217794476Y-94521257D01*
X217842095Y-94616495D01*
X217556381Y-93426019D02*
X217556381Y-93330780D01*
X217604000Y-93235542D01*
X217651619Y-93187923D01*
X217746857Y-93140304D01*
X217937333Y-93092685D01*
X218175429Y-93092685D01*
X218365905Y-93140304D01*
X218461143Y-93187923D01*
X218508762Y-93235542D01*
X218556381Y-93330780D01*
X218556381Y-93426019D01*
X218508762Y-93521257D01*
X218461143Y-93568876D01*
X218365905Y-93616495D01*
X218175429Y-93664114D01*
X217937333Y-93664114D01*
X217746857Y-93616495D01*
X217651619Y-93568876D01*
X217604000Y-93521257D01*
X217556381Y-93426019D01*
X217984952Y-92521257D02*
X217937333Y-92616495D01*
X217889714Y-92664114D01*
X217794476Y-92711733D01*
X217746857Y-92711733D01*
X217651619Y-92664114D01*
X217604000Y-92616495D01*
X217556381Y-92521257D01*
X217556381Y-92330780D01*
X217604000Y-92235542D01*
X217651619Y-92187923D01*
X217746857Y-92140304D01*
X217794476Y-92140304D01*
X217889714Y-92187923D01*
X217937333Y-92235542D01*
X217984952Y-92330780D01*
X217984952Y-92521257D01*
X218032571Y-92616495D01*
X218080190Y-92664114D01*
X218175429Y-92711733D01*
X218365905Y-92711733D01*
X218461143Y-92664114D01*
X218508762Y-92616495D01*
X218556381Y-92521257D01*
X218556381Y-92330780D01*
X218508762Y-92235542D01*
X218461143Y-92187923D01*
X218365905Y-92140304D01*
X218175429Y-92140304D01*
X218080190Y-92187923D01*
X218032571Y-92235542D01*
X217984952Y-92330780D01*
X141084714Y-82933181D02*
X141084714Y-83742705D01*
X141132333Y-83837943D01*
X141179952Y-83885562D01*
X141275190Y-83933181D01*
X141465667Y-83933181D01*
X141560905Y-83885562D01*
X141608524Y-83837943D01*
X141656143Y-83742705D01*
X141656143Y-82933181D01*
X142656143Y-83933181D02*
X142084714Y-83933181D01*
X142370428Y-83933181D02*
X142370428Y-82933181D01*
X142275190Y-83076038D01*
X142179952Y-83171276D01*
X142084714Y-83218895D01*
X143275190Y-82933181D02*
X143370429Y-82933181D01*
X143465667Y-82980800D01*
X143513286Y-83028419D01*
X143560905Y-83123657D01*
X143608524Y-83314133D01*
X143608524Y-83552229D01*
X143560905Y-83742705D01*
X143513286Y-83837943D01*
X143465667Y-83885562D01*
X143370429Y-83933181D01*
X143275190Y-83933181D01*
X143179952Y-83885562D01*
X143132333Y-83837943D01*
X143084714Y-83742705D01*
X143037095Y-83552229D01*
X143037095Y-83314133D01*
X143084714Y-83123657D01*
X143132333Y-83028419D01*
X143179952Y-82980800D01*
X143275190Y-82933181D01*
X143941857Y-82933181D02*
X144560905Y-82933181D01*
X144227571Y-83314133D01*
X144370429Y-83314133D01*
X144465667Y-83361752D01*
X144513286Y-83409371D01*
X144560905Y-83504610D01*
X144560905Y-83742705D01*
X144513286Y-83837943D01*
X144465667Y-83885562D01*
X144370429Y-83933181D01*
X144084714Y-83933181D01*
X143989476Y-83885562D01*
X143941857Y-83837943D01*
X199665613Y-80720203D02*
X199617994Y-80767822D01*
X199475137Y-80815441D01*
X199379899Y-80815441D01*
X199237041Y-80767822D01*
X199141803Y-80672584D01*
X199094184Y-80577346D01*
X199046565Y-80386870D01*
X199046565Y-80244012D01*
X199094184Y-80053536D01*
X199141803Y-79958298D01*
X199237041Y-79863060D01*
X199379899Y-79815441D01*
X199475137Y-79815441D01*
X199617994Y-79863060D01*
X199665613Y-79910679D01*
X200617994Y-80815441D02*
X200046565Y-80815441D01*
X200332279Y-80815441D02*
X200332279Y-79815441D01*
X200237041Y-79958298D01*
X200141803Y-80053536D01*
X200046565Y-80101155D01*
X201237041Y-79815441D02*
X201332280Y-79815441D01*
X201427518Y-79863060D01*
X201475137Y-79910679D01*
X201522756Y-80005917D01*
X201570375Y-80196393D01*
X201570375Y-80434489D01*
X201522756Y-80624965D01*
X201475137Y-80720203D01*
X201427518Y-80767822D01*
X201332280Y-80815441D01*
X201237041Y-80815441D01*
X201141803Y-80767822D01*
X201094184Y-80720203D01*
X201046565Y-80624965D01*
X200998946Y-80434489D01*
X200998946Y-80196393D01*
X201046565Y-80005917D01*
X201094184Y-79910679D01*
X201141803Y-79863060D01*
X201237041Y-79815441D01*
X202522756Y-80815441D02*
X201951327Y-80815441D01*
X202237041Y-80815441D02*
X202237041Y-79815441D01*
X202141803Y-79958298D01*
X202046565Y-80053536D01*
X201951327Y-80101155D01*
X205953608Y-79334669D02*
X206715513Y-79334669D01*
X206334561Y-79715621D02*
X206334561Y-78953716D01*
X186451143Y-75350666D02*
X186498762Y-75398285D01*
X186546381Y-75541142D01*
X186546381Y-75636380D01*
X186498762Y-75779238D01*
X186403524Y-75874476D01*
X186308286Y-75922095D01*
X186117810Y-75969714D01*
X185974952Y-75969714D01*
X185784476Y-75922095D01*
X185689238Y-75874476D01*
X185594000Y-75779238D01*
X185546381Y-75636380D01*
X185546381Y-75541142D01*
X185594000Y-75398285D01*
X185641619Y-75350666D01*
X186546381Y-74398285D02*
X186546381Y-74969714D01*
X186546381Y-74684000D02*
X185546381Y-74684000D01*
X185689238Y-74779238D01*
X185784476Y-74874476D01*
X185832095Y-74969714D01*
X132294334Y-84191143D02*
X132246715Y-84238762D01*
X132103858Y-84286381D01*
X132008620Y-84286381D01*
X131865762Y-84238762D01*
X131770524Y-84143524D01*
X131722905Y-84048286D01*
X131675286Y-83857810D01*
X131675286Y-83714952D01*
X131722905Y-83524476D01*
X131770524Y-83429238D01*
X131865762Y-83334000D01*
X132008620Y-83286381D01*
X132103858Y-83286381D01*
X132246715Y-83334000D01*
X132294334Y-83381619D01*
X132675286Y-83381619D02*
X132722905Y-83334000D01*
X132818143Y-83286381D01*
X133056239Y-83286381D01*
X133151477Y-83334000D01*
X133199096Y-83381619D01*
X133246715Y-83476857D01*
X133246715Y-83572095D01*
X133199096Y-83714952D01*
X132627667Y-84286381D01*
X133246715Y-84286381D01*
X184391143Y-76303047D02*
X184438762Y-76350666D01*
X184486381Y-76493523D01*
X184486381Y-76588761D01*
X184438762Y-76731619D01*
X184343524Y-76826857D01*
X184248286Y-76874476D01*
X184057810Y-76922095D01*
X183914952Y-76922095D01*
X183724476Y-76874476D01*
X183629238Y-76826857D01*
X183534000Y-76731619D01*
X183486381Y-76588761D01*
X183486381Y-76493523D01*
X183534000Y-76350666D01*
X183581619Y-76303047D01*
X184486381Y-75350666D02*
X184486381Y-75922095D01*
X184486381Y-75636381D02*
X183486381Y-75636381D01*
X183629238Y-75731619D01*
X183724476Y-75826857D01*
X183772095Y-75922095D01*
X183486381Y-74731619D02*
X183486381Y-74636380D01*
X183534000Y-74541142D01*
X183581619Y-74493523D01*
X183676857Y-74445904D01*
X183867333Y-74398285D01*
X184105429Y-74398285D01*
X184295905Y-74445904D01*
X184391143Y-74493523D01*
X184438762Y-74541142D01*
X184486381Y-74636380D01*
X184486381Y-74731619D01*
X184438762Y-74826857D01*
X184391143Y-74874476D01*
X184295905Y-74922095D01*
X184105429Y-74969714D01*
X183867333Y-74969714D01*
X183676857Y-74922095D01*
X183581619Y-74874476D01*
X183534000Y-74826857D01*
X183486381Y-74731619D01*
X183581619Y-74017333D02*
X183534000Y-73969714D01*
X183486381Y-73874476D01*
X183486381Y-73636380D01*
X183534000Y-73541142D01*
X183581619Y-73493523D01*
X183676857Y-73445904D01*
X183772095Y-73445904D01*
X183914952Y-73493523D01*
X184486381Y-74064952D01*
X184486381Y-73445904D01*
X177874953Y-90483981D02*
X177541619Y-90007790D01*
X177303524Y-90483981D02*
X177303524Y-89483981D01*
X177684477Y-89483981D01*
X177779715Y-89531600D01*
X177827334Y-89579219D01*
X177874953Y-89674457D01*
X177874953Y-89817314D01*
X177827334Y-89912552D01*
X177779715Y-89960171D01*
X177684477Y-90007790D01*
X177303524Y-90007790D01*
X178827334Y-90483981D02*
X178255905Y-90483981D01*
X178541619Y-90483981D02*
X178541619Y-89483981D01*
X178446381Y-89626838D01*
X178351143Y-89722076D01*
X178255905Y-89769695D01*
X179446381Y-89483981D02*
X179541620Y-89483981D01*
X179636858Y-89531600D01*
X179684477Y-89579219D01*
X179732096Y-89674457D01*
X179779715Y-89864933D01*
X179779715Y-90103029D01*
X179732096Y-90293505D01*
X179684477Y-90388743D01*
X179636858Y-90436362D01*
X179541620Y-90483981D01*
X179446381Y-90483981D01*
X179351143Y-90436362D01*
X179303524Y-90388743D01*
X179255905Y-90293505D01*
X179208286Y-90103029D01*
X179208286Y-89864933D01*
X179255905Y-89674457D01*
X179303524Y-89579219D01*
X179351143Y-89531600D01*
X179446381Y-89483981D01*
X180732096Y-90483981D02*
X180160667Y-90483981D01*
X180446381Y-90483981D02*
X180446381Y-89483981D01*
X180351143Y-89626838D01*
X180255905Y-89722076D01*
X180160667Y-89769695D01*
X177874953Y-93227181D02*
X177541619Y-92750990D01*
X177303524Y-93227181D02*
X177303524Y-92227181D01*
X177684477Y-92227181D01*
X177779715Y-92274800D01*
X177827334Y-92322419D01*
X177874953Y-92417657D01*
X177874953Y-92560514D01*
X177827334Y-92655752D01*
X177779715Y-92703371D01*
X177684477Y-92750990D01*
X177303524Y-92750990D01*
X178827334Y-93227181D02*
X178255905Y-93227181D01*
X178541619Y-93227181D02*
X178541619Y-92227181D01*
X178446381Y-92370038D01*
X178351143Y-92465276D01*
X178255905Y-92512895D01*
X179446381Y-92227181D02*
X179541620Y-92227181D01*
X179636858Y-92274800D01*
X179684477Y-92322419D01*
X179732096Y-92417657D01*
X179779715Y-92608133D01*
X179779715Y-92846229D01*
X179732096Y-93036705D01*
X179684477Y-93131943D01*
X179636858Y-93179562D01*
X179541620Y-93227181D01*
X179446381Y-93227181D01*
X179351143Y-93179562D01*
X179303524Y-93131943D01*
X179255905Y-93036705D01*
X179208286Y-92846229D01*
X179208286Y-92608133D01*
X179255905Y-92417657D01*
X179303524Y-92322419D01*
X179351143Y-92274800D01*
X179446381Y-92227181D01*
X180160667Y-92322419D02*
X180208286Y-92274800D01*
X180303524Y-92227181D01*
X180541620Y-92227181D01*
X180636858Y-92274800D01*
X180684477Y-92322419D01*
X180732096Y-92417657D01*
X180732096Y-92512895D01*
X180684477Y-92655752D01*
X180113048Y-93227181D01*
X180732096Y-93227181D01*
X187026781Y-76201447D02*
X186550590Y-76534781D01*
X187026781Y-76772876D02*
X186026781Y-76772876D01*
X186026781Y-76391923D01*
X186074400Y-76296685D01*
X186122019Y-76249066D01*
X186217257Y-76201447D01*
X186360114Y-76201447D01*
X186455352Y-76249066D01*
X186502971Y-76296685D01*
X186550590Y-76391923D01*
X186550590Y-76772876D01*
X187026781Y-75249066D02*
X187026781Y-75820495D01*
X187026781Y-75534781D02*
X186026781Y-75534781D01*
X186169638Y-75630019D01*
X186264876Y-75725257D01*
X186312495Y-75820495D01*
X186026781Y-74630019D02*
X186026781Y-74534780D01*
X186074400Y-74439542D01*
X186122019Y-74391923D01*
X186217257Y-74344304D01*
X186407733Y-74296685D01*
X186645829Y-74296685D01*
X186836305Y-74344304D01*
X186931543Y-74391923D01*
X186979162Y-74439542D01*
X187026781Y-74534780D01*
X187026781Y-74630019D01*
X186979162Y-74725257D01*
X186931543Y-74772876D01*
X186836305Y-74820495D01*
X186645829Y-74868114D01*
X186407733Y-74868114D01*
X186217257Y-74820495D01*
X186122019Y-74772876D01*
X186074400Y-74725257D01*
X186026781Y-74630019D01*
X186360114Y-73439542D02*
X187026781Y-73439542D01*
X185979162Y-73677638D02*
X186693448Y-73915733D01*
X186693448Y-73296685D01*
X189566781Y-76201447D02*
X189090590Y-76534781D01*
X189566781Y-76772876D02*
X188566781Y-76772876D01*
X188566781Y-76391923D01*
X188614400Y-76296685D01*
X188662019Y-76249066D01*
X188757257Y-76201447D01*
X188900114Y-76201447D01*
X188995352Y-76249066D01*
X189042971Y-76296685D01*
X189090590Y-76391923D01*
X189090590Y-76772876D01*
X189566781Y-75249066D02*
X189566781Y-75820495D01*
X189566781Y-75534781D02*
X188566781Y-75534781D01*
X188709638Y-75630019D01*
X188804876Y-75725257D01*
X188852495Y-75820495D01*
X188566781Y-74630019D02*
X188566781Y-74534780D01*
X188614400Y-74439542D01*
X188662019Y-74391923D01*
X188757257Y-74344304D01*
X188947733Y-74296685D01*
X189185829Y-74296685D01*
X189376305Y-74344304D01*
X189471543Y-74391923D01*
X189519162Y-74439542D01*
X189566781Y-74534780D01*
X189566781Y-74630019D01*
X189519162Y-74725257D01*
X189471543Y-74772876D01*
X189376305Y-74820495D01*
X189185829Y-74868114D01*
X188947733Y-74868114D01*
X188757257Y-74820495D01*
X188662019Y-74772876D01*
X188614400Y-74725257D01*
X188566781Y-74630019D01*
X188566781Y-73391923D02*
X188566781Y-73868114D01*
X189042971Y-73915733D01*
X188995352Y-73868114D01*
X188947733Y-73772876D01*
X188947733Y-73534780D01*
X188995352Y-73439542D01*
X189042971Y-73391923D01*
X189138210Y-73344304D01*
X189376305Y-73344304D01*
X189471543Y-73391923D01*
X189519162Y-73439542D01*
X189566781Y-73534780D01*
X189566781Y-73772876D01*
X189519162Y-73868114D01*
X189471543Y-73915733D01*
X153092381Y-81129047D02*
X152616190Y-81462381D01*
X153092381Y-81700476D02*
X152092381Y-81700476D01*
X152092381Y-81319523D01*
X152140000Y-81224285D01*
X152187619Y-81176666D01*
X152282857Y-81129047D01*
X152425714Y-81129047D01*
X152520952Y-81176666D01*
X152568571Y-81224285D01*
X152616190Y-81319523D01*
X152616190Y-81700476D01*
X153092381Y-80176666D02*
X153092381Y-80748095D01*
X153092381Y-80462381D02*
X152092381Y-80462381D01*
X152235238Y-80557619D01*
X152330476Y-80652857D01*
X152378095Y-80748095D01*
X152092381Y-79557619D02*
X152092381Y-79462380D01*
X152140000Y-79367142D01*
X152187619Y-79319523D01*
X152282857Y-79271904D01*
X152473333Y-79224285D01*
X152711429Y-79224285D01*
X152901905Y-79271904D01*
X152997143Y-79319523D01*
X153044762Y-79367142D01*
X153092381Y-79462380D01*
X153092381Y-79557619D01*
X153044762Y-79652857D01*
X152997143Y-79700476D01*
X152901905Y-79748095D01*
X152711429Y-79795714D01*
X152473333Y-79795714D01*
X152282857Y-79748095D01*
X152187619Y-79700476D01*
X152140000Y-79652857D01*
X152092381Y-79557619D01*
X152092381Y-78890952D02*
X152092381Y-78271904D01*
X152473333Y-78605238D01*
X152473333Y-78462380D01*
X152520952Y-78367142D01*
X152568571Y-78319523D01*
X152663810Y-78271904D01*
X152901905Y-78271904D01*
X152997143Y-78319523D01*
X153044762Y-78367142D01*
X153092381Y-78462380D01*
X153092381Y-78748095D01*
X153044762Y-78843333D01*
X152997143Y-78890952D01*
X154213762Y-79162114D02*
X154261381Y-79019257D01*
X154261381Y-78781161D01*
X154213762Y-78685923D01*
X154166143Y-78638304D01*
X154070905Y-78590685D01*
X153975667Y-78590685D01*
X153880429Y-78638304D01*
X153832810Y-78685923D01*
X153785190Y-78781161D01*
X153737571Y-78971638D01*
X153689952Y-79066876D01*
X153642333Y-79114495D01*
X153547095Y-79162114D01*
X153451857Y-79162114D01*
X153356619Y-79114495D01*
X153309000Y-79066876D01*
X153261381Y-78971638D01*
X153261381Y-78733542D01*
X153309000Y-78590685D01*
X153261381Y-78257352D02*
X154261381Y-78019257D01*
X153547095Y-77828780D01*
X154261381Y-77638304D01*
X153261381Y-77400209D01*
X154261381Y-76495447D02*
X154261381Y-77066876D01*
X154261381Y-76781162D02*
X153261381Y-76781162D01*
X153404238Y-76876400D01*
X153499476Y-76971638D01*
X153547095Y-77066876D01*
X153261381Y-75876400D02*
X153261381Y-75781161D01*
X153309000Y-75685923D01*
X153356619Y-75638304D01*
X153451857Y-75590685D01*
X153642333Y-75543066D01*
X153880429Y-75543066D01*
X154070905Y-75590685D01*
X154166143Y-75638304D01*
X154213762Y-75685923D01*
X154261381Y-75781161D01*
X154261381Y-75876400D01*
X154213762Y-75971638D01*
X154166143Y-76019257D01*
X154070905Y-76066876D01*
X153880429Y-76114495D01*
X153642333Y-76114495D01*
X153451857Y-76066876D01*
X153356619Y-76019257D01*
X153309000Y-75971638D01*
X153261381Y-75876400D01*
X154261381Y-74590685D02*
X154261381Y-75162114D01*
X154261381Y-74876400D02*
X153261381Y-74876400D01*
X153404238Y-74971638D01*
X153499476Y-75066876D01*
X153547095Y-75162114D01*
X155067286Y-75918962D02*
X155210143Y-75966581D01*
X155448239Y-75966581D01*
X155543477Y-75918962D01*
X155591096Y-75871343D01*
X155638715Y-75776105D01*
X155638715Y-75680867D01*
X155591096Y-75585629D01*
X155543477Y-75538010D01*
X155448239Y-75490390D01*
X155257762Y-75442771D01*
X155162524Y-75395152D01*
X155114905Y-75347533D01*
X155067286Y-75252295D01*
X155067286Y-75157057D01*
X155114905Y-75061819D01*
X155162524Y-75014200D01*
X155257762Y-74966581D01*
X155495858Y-74966581D01*
X155638715Y-75014200D01*
X155972048Y-74966581D02*
X156210143Y-75966581D01*
X156400620Y-75252295D01*
X156591096Y-75966581D01*
X156829191Y-74966581D01*
X157733953Y-75966581D02*
X157162524Y-75966581D01*
X157448238Y-75966581D02*
X157448238Y-74966581D01*
X157353000Y-75109438D01*
X157257762Y-75204676D01*
X157162524Y-75252295D01*
X158353000Y-74966581D02*
X158448239Y-74966581D01*
X158543477Y-75014200D01*
X158591096Y-75061819D01*
X158638715Y-75157057D01*
X158686334Y-75347533D01*
X158686334Y-75585629D01*
X158638715Y-75776105D01*
X158591096Y-75871343D01*
X158543477Y-75918962D01*
X158448239Y-75966581D01*
X158353000Y-75966581D01*
X158257762Y-75918962D01*
X158210143Y-75871343D01*
X158162524Y-75776105D01*
X158114905Y-75585629D01*
X158114905Y-75347533D01*
X158162524Y-75157057D01*
X158210143Y-75061819D01*
X158257762Y-75014200D01*
X158353000Y-74966581D01*
X159067286Y-75061819D02*
X159114905Y-75014200D01*
X159210143Y-74966581D01*
X159448239Y-74966581D01*
X159543477Y-75014200D01*
X159591096Y-75061819D01*
X159638715Y-75157057D01*
X159638715Y-75252295D01*
X159591096Y-75395152D01*
X159019667Y-75966581D01*
X159638715Y-75966581D01*
X159986004Y-73860921D02*
X159986004Y-72860921D01*
X160224099Y-72860921D01*
X160366957Y-72908540D01*
X160462195Y-73003778D01*
X160509814Y-73099016D01*
X160557433Y-73289492D01*
X160557433Y-73432350D01*
X160509814Y-73622826D01*
X160462195Y-73718064D01*
X160366957Y-73813302D01*
X160224099Y-73860921D01*
X159986004Y-73860921D01*
X161509814Y-73860921D02*
X160938385Y-73860921D01*
X161224099Y-73860921D02*
X161224099Y-72860921D01*
X161128861Y-73003778D01*
X161033623Y-73099016D01*
X160938385Y-73146635D01*
X162128861Y-72860921D02*
X162224100Y-72860921D01*
X162319338Y-72908540D01*
X162366957Y-72956159D01*
X162414576Y-73051397D01*
X162462195Y-73241873D01*
X162462195Y-73479969D01*
X162414576Y-73670445D01*
X162366957Y-73765683D01*
X162319338Y-73813302D01*
X162224100Y-73860921D01*
X162128861Y-73860921D01*
X162033623Y-73813302D01*
X161986004Y-73765683D01*
X161938385Y-73670445D01*
X161890766Y-73479969D01*
X161890766Y-73241873D01*
X161938385Y-73051397D01*
X161986004Y-72956159D01*
X162033623Y-72908540D01*
X162128861Y-72860921D01*
X163414576Y-73860921D02*
X162843147Y-73860921D01*
X163128861Y-73860921D02*
X163128861Y-72860921D01*
X163033623Y-73003778D01*
X162938385Y-73099016D01*
X162843147Y-73146635D01*
M02*
