G04 #@! TF.FileFunction,Copper,L1,Top,Signal*
%FSLAX46Y46*%
G04 Gerber Fmt 4.6, Leading zero omitted, Abs format (unit mm)*
G04 Created by KiCad (PCBNEW 4.0.2-stable) date viernes, 29 '29e' abril '29e' 2016, 11:45:47*
%MOMM*%
G01*
G04 APERTURE LIST*
%ADD10C,0.100000*%
%ADD11R,2.032000X2.032000*%
%ADD12O,2.032000X2.032000*%
%ADD13R,2.032000X1.727200*%
%ADD14O,2.032000X1.727200*%
%ADD15R,1.727200X2.032000*%
%ADD16O,1.727200X2.032000*%
%ADD17R,2.032000X3.657600*%
%ADD18R,2.032000X1.016000*%
%ADD19R,1.950000X0.600000*%
%ADD20R,2.500000X1.100000*%
%ADD21R,0.600000X2.000000*%
%ADD22R,1.200000X0.400000*%
%ADD23R,3.500120X1.800860*%
%ADD24R,1.600000X1.000000*%
%ADD25R,1.000000X1.600000*%
%ADD26R,0.900000X1.700000*%
%ADD27R,1.700000X0.900000*%
%ADD28R,1.000000X2.750000*%
%ADD29R,1.397000X1.397000*%
%ADD30C,1.397000*%
%ADD31C,1.699260*%
%ADD32R,1.699260X1.699260*%
%ADD33C,0.600000*%
%ADD34C,0.300000*%
%ADD35C,0.250000*%
G04 APERTURE END LIST*
D10*
D11*
X171831000Y-75717400D03*
D12*
X171831000Y-73177400D03*
D13*
X127533000Y-90195400D03*
D14*
X127533000Y-87655400D03*
X127533000Y-85115400D03*
X127533000Y-82575400D03*
X127533000Y-80035400D03*
X127533000Y-77495400D03*
D11*
X175463000Y-73101200D03*
D12*
X175463000Y-75641200D03*
D13*
X212954000Y-90144600D03*
D14*
X212954000Y-87604600D03*
X212954000Y-85064600D03*
X212954000Y-82524600D03*
X212954000Y-79984600D03*
X212954000Y-77444600D03*
D15*
X155499000Y-93802200D03*
D16*
X152959000Y-93802200D03*
X150419000Y-93802200D03*
X147879000Y-93802200D03*
X145339000Y-93802200D03*
X142799000Y-93802200D03*
X140259000Y-93802200D03*
X137719000Y-93802200D03*
X135179000Y-93802200D03*
X132639000Y-93802200D03*
X130099000Y-93802200D03*
X127559000Y-93802200D03*
D13*
X153670000Y-90170000D03*
D14*
X153670000Y-87630000D03*
X153670000Y-85090000D03*
D15*
X196418000Y-93878400D03*
D16*
X193878000Y-93878400D03*
X191338000Y-93878400D03*
X188798000Y-93878400D03*
X186258000Y-93878400D03*
X183718000Y-93878400D03*
X181178000Y-93878400D03*
X178638000Y-93878400D03*
D17*
X144043000Y-78054200D03*
D18*
X137439000Y-78054200D03*
X137439000Y-80340200D03*
X137439000Y-75768200D03*
D19*
X193600000Y-90652600D03*
X193600000Y-89382600D03*
X193600000Y-88112600D03*
X193600000Y-86842600D03*
X193600000Y-85572600D03*
X193600000Y-84302600D03*
X193600000Y-83032600D03*
X193600000Y-81762600D03*
X193600000Y-80492600D03*
X193600000Y-79222600D03*
X184200000Y-79222600D03*
X184200000Y-80492600D03*
X184200000Y-81762600D03*
X184200000Y-83032600D03*
X184200000Y-84302600D03*
X184200000Y-85572600D03*
X184200000Y-86842600D03*
X184200000Y-88112600D03*
X184200000Y-89382600D03*
X184200000Y-90652600D03*
D20*
X174690000Y-93980000D03*
X174690000Y-91980000D03*
X174690000Y-89980000D03*
X174690000Y-87980000D03*
X174690000Y-85980000D03*
X174690000Y-83980000D03*
X174690000Y-81980000D03*
X174690000Y-79980000D03*
X159290000Y-79980000D03*
X159390000Y-81980000D03*
X159290000Y-83980000D03*
X159290000Y-85980000D03*
X159290000Y-87980000D03*
X159290000Y-89980000D03*
X159290000Y-91980000D03*
X159290000Y-93980000D03*
D21*
X207823000Y-80771000D03*
X206553000Y-80771000D03*
X205283000Y-80771000D03*
X204013000Y-80771000D03*
X202743000Y-80771000D03*
X201473000Y-80771000D03*
X200203000Y-80771000D03*
X198933000Y-80771000D03*
X197663000Y-80771000D03*
X197663000Y-90171000D03*
X198933000Y-90171000D03*
X200203000Y-90171000D03*
X201473000Y-90171000D03*
X202743000Y-90171000D03*
X204013000Y-90171000D03*
X205283000Y-90171000D03*
X206553000Y-90171000D03*
X207823000Y-90171000D03*
D15*
X213004000Y-93878400D03*
D16*
X210464000Y-93878400D03*
X207924000Y-93878400D03*
X205384000Y-93878400D03*
X202844000Y-93878400D03*
X200304000Y-93878400D03*
D22*
X139349000Y-85405800D03*
X139349000Y-86055800D03*
X139349000Y-86705800D03*
X139349000Y-87355800D03*
X139349000Y-88005800D03*
X139349000Y-88655800D03*
X139349000Y-89305800D03*
X139349000Y-89955800D03*
X146249000Y-89955800D03*
X146249000Y-89305800D03*
X146249000Y-88655800D03*
X146249000Y-88005800D03*
X146249000Y-87355800D03*
X146249000Y-86705800D03*
X146249000Y-86055800D03*
X146249000Y-85405800D03*
D23*
X197584260Y-77063600D03*
X203583740Y-77063600D03*
D24*
X183794000Y-73684000D03*
X183794000Y-76684000D03*
D25*
X133961000Y-81534000D03*
X130961000Y-81534000D03*
D24*
X186334000Y-76684000D03*
X186334000Y-73684000D03*
D26*
X180444000Y-87731600D03*
X177544000Y-87731600D03*
X180444000Y-90474800D03*
X177544000Y-90474800D03*
D27*
X188874400Y-76532400D03*
X188874400Y-73632400D03*
X191414400Y-76532400D03*
X191414400Y-73632400D03*
X154940000Y-81460000D03*
X154940000Y-78560000D03*
D28*
X151809000Y-80751400D03*
X151809000Y-75001400D03*
X147809000Y-75001400D03*
X147809000Y-80751400D03*
D29*
X159893000Y-72974200D03*
D30*
X157353000Y-72974200D03*
X154813000Y-72974200D03*
D31*
X156946480Y-75948540D03*
D32*
X167106480Y-75948540D03*
D33*
X199556500Y-85925700D03*
X177565000Y-80289100D03*
X195933800Y-87934000D03*
X188552200Y-88208000D03*
X188393100Y-85553000D03*
X165857600Y-83046800D03*
X196720500Y-90054600D03*
X186818700Y-81721800D03*
X177898100Y-82204100D03*
X157539500Y-87848700D03*
X148718200Y-86665500D03*
X190743200Y-82000500D03*
X206542300Y-82271500D03*
X207111700Y-82839700D03*
X190131300Y-83482900D03*
X155594000Y-79930400D03*
X155665500Y-77577700D03*
X186308800Y-80483700D03*
X195818400Y-80488900D03*
D34*
X186334000Y-73684000D02*
X183794000Y-73684000D01*
X132476700Y-77200300D02*
X132476700Y-83002366D01*
X132476700Y-77200300D02*
X139128400Y-70548600D01*
X139128400Y-70548600D02*
X181508900Y-70548600D01*
X181508900Y-70548600D02*
X183794000Y-72833700D01*
X183794000Y-73258800D02*
X183794000Y-72833700D01*
X132476700Y-83002366D02*
X132686710Y-83212376D01*
X137269600Y-82784400D02*
X133185400Y-82784400D01*
X137439000Y-78054200D02*
X139166600Y-78054200D01*
X141216500Y-80104100D02*
X141216500Y-81984400D01*
X139166600Y-78054200D02*
X141216500Y-80104100D01*
X191414400Y-73632400D02*
X201403200Y-73632400D01*
X203583700Y-75812900D02*
X203583700Y-77063600D01*
X201904900Y-74134100D02*
X203583700Y-75812900D01*
X201403200Y-73632400D02*
X201904900Y-74134100D01*
X186334000Y-73684000D02*
X191362800Y-73684000D01*
X191362800Y-73684000D02*
X191414400Y-73632400D01*
X146249000Y-85405800D02*
X146249000Y-85314200D01*
X209250100Y-92948400D02*
X209250100Y-93878400D01*
X207823000Y-91521300D02*
X209250100Y-92948400D01*
X191414400Y-73632400D02*
X191414400Y-74032500D01*
X144791000Y-85405800D02*
X141369400Y-81984400D01*
X146249000Y-85405800D02*
X144791000Y-85405800D01*
X183794000Y-73684000D02*
X183794000Y-73258800D01*
X130403200Y-85090000D02*
X127533000Y-85115400D01*
X132686710Y-83212376D02*
X130403200Y-85090000D01*
X132689600Y-83210000D02*
X132686710Y-83212376D01*
X133175700Y-82774700D02*
X132689600Y-83210000D01*
X141216500Y-81984400D02*
X141066500Y-82134400D01*
X141066500Y-82134400D02*
X137919600Y-82134400D01*
X137919600Y-82134400D02*
X137269600Y-82784400D01*
X141369400Y-81984400D02*
X141216500Y-81984400D01*
X177289900Y-80979600D02*
X176290300Y-79980000D01*
X177778300Y-80979600D02*
X177289900Y-80979600D01*
X180444000Y-83645300D02*
X177778300Y-80979600D01*
X180444000Y-87731600D02*
X180444000Y-83645300D01*
X173990000Y-79980000D02*
X176290300Y-79980000D01*
X178638000Y-93878400D02*
X179851900Y-93878400D01*
X180444000Y-87731600D02*
X180444000Y-90474800D01*
X179851900Y-92267200D02*
X179851900Y-93878400D01*
X180444000Y-91675100D02*
X179851900Y-92267200D01*
X180444000Y-90474800D02*
X180444000Y-91675100D01*
X210464000Y-93878400D02*
X210022400Y-93878400D01*
X210022400Y-93878400D02*
X209250100Y-93878400D01*
X183301400Y-95371300D02*
X182448000Y-94517900D01*
X208529500Y-95371300D02*
X183301400Y-95371300D01*
X210022400Y-93878400D02*
X208529500Y-95371300D01*
X182448000Y-92404600D02*
X182448000Y-94517900D01*
X184200000Y-90652600D02*
X182448000Y-92404600D01*
X179851900Y-94451900D02*
X179851900Y-93878400D01*
X180664600Y-95264600D02*
X179851900Y-94451900D01*
X181701300Y-95264600D02*
X180664600Y-95264600D01*
X182448000Y-94517900D02*
X181701300Y-95264600D01*
X203107200Y-78790800D02*
X203583700Y-78314300D01*
X201473000Y-78790800D02*
X203107200Y-78790800D01*
X203583700Y-77063600D02*
X203583700Y-78314300D01*
X201473000Y-80771000D02*
X201473000Y-78790800D01*
X204111000Y-78841600D02*
X203583700Y-78314300D01*
X205283000Y-78841600D02*
X204111000Y-78841600D01*
X205283000Y-79420700D02*
X205283000Y-78841600D01*
X205283000Y-80220900D02*
X205283000Y-79420700D01*
X207823000Y-90846100D02*
X207823000Y-91521300D01*
X205283000Y-80220900D02*
X205283000Y-80771000D01*
X205283000Y-80771000D02*
X205283000Y-82121300D01*
X207823000Y-90846100D02*
X207823000Y-90171000D01*
X207823000Y-85467900D02*
X208226300Y-85064600D01*
X207823000Y-90171000D02*
X207823000Y-85467900D01*
X205283000Y-82121300D02*
X208226300Y-85064600D01*
X208226300Y-85064600D02*
X212954000Y-85064600D01*
X199556500Y-85925700D02*
X199556500Y-82942300D01*
X199556500Y-82942300D02*
X200126600Y-82372200D01*
X202920600Y-82372200D02*
X200126600Y-82372200D01*
X200126600Y-82372200D02*
X198272400Y-82372200D01*
X198272400Y-82372200D02*
X197663000Y-81762800D01*
X197663000Y-81762800D02*
X197663000Y-80771000D01*
X204013000Y-80771000D02*
X204013000Y-81686200D01*
X204013000Y-81686200D02*
X203327000Y-82372200D01*
X203327000Y-82372200D02*
X202920600Y-82372200D01*
X202920600Y-82372200D02*
X202743000Y-82194600D01*
X202743000Y-82194600D02*
X202743000Y-80771000D01*
X193600000Y-84302600D02*
X194925300Y-84302600D01*
X194925300Y-84302600D02*
X194919600Y-84296900D01*
X194767200Y-83032600D02*
X193600000Y-83032600D01*
X194919600Y-83185000D02*
X194767200Y-83032600D01*
X194919600Y-84296900D02*
X194919600Y-83185000D01*
X171831000Y-75717400D02*
X173197300Y-75717400D01*
X174598600Y-77118700D02*
X173197300Y-75717400D01*
X182209000Y-77118700D02*
X174598600Y-77118700D01*
X182643700Y-76684000D02*
X182209000Y-77118700D01*
X183794000Y-76684000D02*
X182643700Y-76684000D01*
X197584300Y-79342000D02*
X197663000Y-79420700D01*
X197584300Y-77063600D02*
X197584300Y-79342000D01*
X197663000Y-80771000D02*
X197663000Y-79420700D01*
X137439000Y-75768200D02*
X138805300Y-75768200D01*
X159990000Y-79980000D02*
X157689700Y-79980000D01*
X184200000Y-83032600D02*
X182874700Y-83032600D01*
X182874700Y-84302600D02*
X182874700Y-85572600D01*
X184200000Y-84302600D02*
X182874700Y-84302600D01*
X193600000Y-86842600D02*
X193931400Y-86842600D01*
X130961000Y-81534000D02*
X130110700Y-81534000D01*
X182874700Y-83032600D02*
X182874700Y-84302600D01*
X183794000Y-76684000D02*
X186334000Y-76684000D01*
X180131200Y-80289100D02*
X182874700Y-83032600D01*
X177565000Y-80289100D02*
X180131200Y-80289100D01*
X184200000Y-85572600D02*
X182949800Y-85572600D01*
X182949800Y-85572600D02*
X182874700Y-85572600D01*
X181178000Y-93878400D02*
X181178000Y-92512100D01*
X129069300Y-82575400D02*
X130110700Y-81534000D01*
X127533000Y-82575400D02*
X129069300Y-82575400D01*
X171831000Y-75717400D02*
X170464700Y-75717400D01*
X169213300Y-74466000D02*
X170464700Y-75717400D01*
X153942600Y-74466000D02*
X169213300Y-74466000D01*
X152273000Y-72796400D02*
X153942600Y-74466000D01*
X147809000Y-72796400D02*
X152273000Y-72796400D01*
X147809000Y-75001400D02*
X147809000Y-72796400D01*
X194842400Y-86842600D02*
X195933800Y-87934000D01*
X193931400Y-86842600D02*
X194842400Y-86842600D01*
X184200000Y-86842600D02*
X182874700Y-86842600D01*
X182874700Y-85572600D02*
X182874700Y-86842600D01*
X182527900Y-91162200D02*
X181178000Y-92512100D01*
X182527900Y-87189400D02*
X182527900Y-91162200D01*
X182874700Y-86842600D02*
X182527900Y-87189400D01*
X138805300Y-75768200D02*
X147809000Y-75768200D01*
X147809000Y-75768200D02*
X147809000Y-75001400D01*
X147809000Y-85566000D02*
X147809000Y-80751400D01*
X147319000Y-86055800D02*
X147809000Y-85566000D01*
X146249000Y-86055800D02*
X147319000Y-86055800D01*
X154940000Y-78560000D02*
X153739700Y-78560000D01*
X153739700Y-78560000D02*
X147809000Y-78560000D01*
X147809000Y-80751400D02*
X147809000Y-78560000D01*
X147809000Y-78560000D02*
X147809000Y-75768200D01*
X156269700Y-78560000D02*
X154940000Y-78560000D01*
X156330700Y-78621000D02*
X156269700Y-78560000D01*
X156522500Y-78621000D02*
X156330700Y-78621000D01*
X156903400Y-79001900D02*
X156522500Y-78621000D01*
X156903400Y-79193700D02*
X156903400Y-79001900D01*
X157689700Y-79980000D02*
X156903400Y-79193700D01*
X193600000Y-86842600D02*
X194925300Y-86842600D01*
X194925300Y-86842600D02*
X194925300Y-85572600D01*
X193600000Y-85572600D02*
X194925300Y-85572600D01*
X193600000Y-85572600D02*
X194925300Y-85572600D01*
X194925300Y-85572600D02*
X194925300Y-84302600D01*
X193600000Y-83032600D02*
X193056900Y-83032600D01*
X192379600Y-75641200D02*
X191998600Y-75260200D01*
X177139600Y-75260200D02*
X176929300Y-75470500D01*
X191998600Y-75260200D02*
X177139600Y-75260200D01*
X135972700Y-80340200D02*
X135966200Y-80340200D01*
X137439000Y-80340200D02*
X135972700Y-80340200D01*
X135966200Y-80340200D02*
X134772400Y-81534000D01*
X135960650Y-74910150D02*
X135960650Y-74887952D01*
X135960650Y-74887952D02*
X139697702Y-71150900D01*
X139697702Y-71150900D02*
X139871000Y-71150900D01*
X133948950Y-76921850D02*
X133961000Y-81534000D01*
X133948950Y-76921850D02*
X135960650Y-74910150D01*
X176199700Y-71150900D02*
X139871000Y-71150900D01*
X176929300Y-71880500D02*
X176199700Y-71150900D01*
X176929300Y-75470500D02*
X176929300Y-71880500D01*
X176929300Y-75641200D02*
X176929300Y-75470500D01*
X175463000Y-75641200D02*
X176929300Y-75641200D01*
X133961000Y-81534000D02*
X134772400Y-81534000D01*
X193600000Y-79222600D02*
X192174700Y-79222600D01*
X192379600Y-75641200D02*
X192408500Y-75641200D01*
X192408500Y-75641200D02*
X192720400Y-75953100D01*
X192720400Y-75953100D02*
X192720400Y-77926600D01*
X192720400Y-77926600D02*
X192174700Y-78472300D01*
X192174700Y-78472300D02*
X192174700Y-79222600D01*
X192079300Y-88208000D02*
X188552200Y-88208000D01*
X192174700Y-88112600D02*
X192079300Y-88208000D01*
X193600000Y-88112600D02*
X192174700Y-88112600D01*
X193600000Y-81762600D02*
X192174700Y-81762600D01*
X192174700Y-82508100D02*
X192174700Y-81762600D01*
X189129800Y-85553000D02*
X192174700Y-82508100D01*
X188393100Y-85553000D02*
X189129800Y-85553000D01*
X126035300Y-81533100D02*
X127533000Y-80035400D01*
X126035300Y-94312300D02*
X126035300Y-81533100D01*
X127002900Y-95279900D02*
X126035300Y-94312300D01*
X165689800Y-95279900D02*
X127002900Y-95279900D01*
X172989700Y-87980000D02*
X165689800Y-95279900D01*
X173990000Y-87980000D02*
X172989700Y-87980000D01*
X166790800Y-83980000D02*
X165857600Y-83046800D01*
X173990000Y-83980000D02*
X166790800Y-83980000D01*
X195208100Y-91567000D02*
X196720500Y-90054600D01*
X189079700Y-91567000D02*
X195208100Y-91567000D01*
X185625300Y-88112600D02*
X189079700Y-91567000D01*
X184200000Y-88112600D02*
X185625300Y-88112600D01*
X186777900Y-81762600D02*
X186818700Y-81721800D01*
X184200000Y-81762600D02*
X186777900Y-81762600D01*
X214451700Y-81482300D02*
X212954000Y-79984600D01*
X214451700Y-95019700D02*
X214451700Y-81482300D01*
X213499700Y-95971700D02*
X214451700Y-95019700D01*
X178664600Y-95971700D02*
X213499700Y-95971700D01*
X177305100Y-94612200D02*
X178664600Y-95971700D01*
X177305100Y-92863100D02*
X177305100Y-94612200D01*
X178978400Y-91189800D02*
X177305100Y-92863100D01*
X178978400Y-87153900D02*
X178978400Y-91189800D01*
X177804500Y-85980000D02*
X178978400Y-87153900D01*
X173990000Y-85980000D02*
X177804500Y-85980000D01*
X173990000Y-81980000D02*
X176390300Y-81980000D01*
X176614400Y-82204100D02*
X177898100Y-82204100D01*
X176390300Y-81980000D02*
X176614400Y-82204100D01*
D35*
X148280000Y-88005800D02*
X146249000Y-88005800D01*
X152425000Y-92151200D02*
X148280000Y-88005800D01*
X154305000Y-92151200D02*
X152425000Y-92151200D01*
X155499000Y-93345000D02*
X154305000Y-92151200D01*
X155499000Y-93802200D02*
X155499000Y-93345000D01*
X147812000Y-88655800D02*
X152959000Y-93802200D01*
X146249000Y-88655800D02*
X147812000Y-88655800D01*
X150419000Y-92710000D02*
X150419000Y-93802200D01*
X147015000Y-89305800D02*
X150419000Y-92710000D01*
X146249000Y-89305800D02*
X147015000Y-89305800D01*
X146249000Y-92172200D02*
X147879000Y-93802200D01*
X146249000Y-89955800D02*
X146249000Y-92172200D01*
X145339000Y-92227400D02*
X145339000Y-93802200D01*
X141767000Y-88655800D02*
X145339000Y-92227400D01*
X139349000Y-88655800D02*
X141767000Y-88655800D01*
X142799000Y-90754200D02*
X142799000Y-93802200D01*
X141350000Y-89305800D02*
X142799000Y-90754200D01*
X139349000Y-89305800D02*
X141350000Y-89305800D01*
X139349000Y-92892200D02*
X140259000Y-93802200D01*
X139349000Y-89955800D02*
X139349000Y-92892200D01*
X138049000Y-93472000D02*
X137719000Y-93802200D01*
X138049000Y-88595200D02*
X138049000Y-93472000D01*
X138638000Y-88005800D02*
X138049000Y-88595200D01*
X139349000Y-88005800D02*
X138638000Y-88005800D01*
X137058000Y-91922600D02*
X135179000Y-93802200D01*
X137058000Y-88798400D02*
X137058000Y-91922600D01*
X138501000Y-87355800D02*
X137058000Y-88798400D01*
X139349000Y-87355800D02*
X138501000Y-87355800D01*
X134061000Y-92379800D02*
X132639000Y-93802200D01*
X134061000Y-90906600D02*
X134061000Y-92379800D01*
X138262000Y-86705800D02*
X134061000Y-90906600D01*
X139349000Y-86705800D02*
X138262000Y-86705800D01*
X137845000Y-86055800D02*
X130099000Y-93802200D01*
X139349000Y-86055800D02*
X137845000Y-86055800D01*
X135981000Y-85405800D02*
X139349000Y-85405800D01*
X127584000Y-93802200D02*
X135981000Y-85405800D01*
X127559000Y-93802200D02*
X127584000Y-93802200D01*
D34*
X155136300Y-90901400D02*
X155136300Y-90170000D01*
X157589700Y-93354800D02*
X155136300Y-90901400D01*
X157589700Y-93980000D02*
X157589700Y-93354800D01*
X159990000Y-93980000D02*
X157589700Y-93980000D01*
X153670000Y-90170000D02*
X155136300Y-90170000D01*
X157589700Y-89009700D02*
X153670000Y-85090000D01*
X157589700Y-91980000D02*
X157589700Y-89009700D01*
X159990000Y-91980000D02*
X157589700Y-91980000D01*
X159990000Y-87980000D02*
X157689700Y-87980000D01*
X157670800Y-87980000D02*
X157539500Y-87848700D01*
X157689700Y-87980000D02*
X157670800Y-87980000D01*
X146249000Y-86705800D02*
X147736000Y-86705800D01*
X148677900Y-86705800D02*
X148718200Y-86665500D01*
X147736000Y-86705800D02*
X148677900Y-86705800D01*
X190743200Y-78105100D02*
X190743200Y-82000500D01*
X191414000Y-77434300D02*
X190743200Y-78105100D01*
X191414400Y-76532400D02*
X191414000Y-77434300D01*
X206553000Y-80771000D02*
X206553000Y-82121300D01*
X206553000Y-82260800D02*
X206542300Y-82271500D01*
X206553000Y-82121300D02*
X206553000Y-82260800D01*
X172796200Y-77728800D02*
X172796200Y-77698600D01*
X172675300Y-77577700D02*
X152660000Y-77577700D01*
X172796200Y-77698600D02*
X172675300Y-77577700D01*
X151809000Y-75001400D02*
X151809000Y-76726700D01*
X152660000Y-77577700D02*
X151809000Y-76726700D01*
X188874400Y-76532400D02*
X188874000Y-77434300D01*
X188579500Y-81931100D02*
X190131300Y-83482900D01*
X188579500Y-77728800D02*
X188579500Y-81931100D01*
X188579500Y-77728800D02*
X188874000Y-77434300D01*
X207823000Y-82128400D02*
X207823000Y-80771000D01*
X207111700Y-82839700D02*
X207823000Y-82128400D01*
X149601000Y-87355800D02*
X149616000Y-87340500D01*
X146249000Y-87355800D02*
X149601000Y-87355800D01*
X149616000Y-87340500D02*
X149631000Y-87325200D01*
X157362600Y-85980000D02*
X159990000Y-85980000D01*
X155150700Y-83768100D02*
X157362600Y-85980000D01*
X151809000Y-83768100D02*
X155150700Y-83768100D01*
X151809000Y-85147500D02*
X151809000Y-83768100D01*
X149616000Y-87340500D02*
X151809000Y-85147500D01*
X188579500Y-77728800D02*
X172796200Y-77728800D01*
X155665500Y-77577700D02*
X155665500Y-77728800D01*
X151809000Y-83768100D02*
X151809000Y-80751400D01*
X152630000Y-79930400D02*
X155594000Y-79930400D01*
X151809000Y-80751400D02*
X152630000Y-79930400D01*
X176643700Y-89726600D02*
X176390300Y-89980000D01*
X176643700Y-87731600D02*
X176643700Y-89726600D01*
X177544000Y-87731600D02*
X176643700Y-87731600D01*
X173990000Y-89980000D02*
X176390300Y-89980000D01*
X176390300Y-92928800D02*
X176390300Y-93980000D01*
X177544000Y-91775100D02*
X176390300Y-92928800D01*
X177544000Y-90474800D02*
X177544000Y-91775100D01*
X173990000Y-93980000D02*
X176390300Y-93980000D01*
X195533300Y-88874600D02*
X195025300Y-89382600D01*
X197663000Y-88874600D02*
X195533300Y-88874600D01*
X197663000Y-90171000D02*
X197663000Y-88874600D01*
X193600000Y-89382600D02*
X195025300Y-89382600D01*
X193600000Y-80492600D02*
X195025300Y-80492600D01*
X198933000Y-90171000D02*
X198933000Y-88720700D01*
X198205900Y-87993600D02*
X198933000Y-88720700D01*
X198205900Y-84522100D02*
X198205900Y-87993600D01*
X195025300Y-81341500D02*
X198205900Y-84522100D01*
X195025300Y-80492600D02*
X195025300Y-81341500D01*
X198806200Y-86241500D02*
X198806200Y-86639800D01*
X185625300Y-80492600D02*
X185634200Y-80483700D01*
X185634200Y-80483700D02*
X186308800Y-80483700D01*
X198806200Y-86241500D02*
X198806200Y-84273500D01*
X198806200Y-84273500D02*
X195818400Y-81285700D01*
X195818400Y-81285700D02*
X195818400Y-80488900D01*
X184200000Y-80492600D02*
X185625300Y-80492600D01*
X200433100Y-87680800D02*
X201473000Y-88720700D01*
X199847200Y-87680800D02*
X200433100Y-87680800D01*
X198806200Y-86639800D02*
X199847200Y-87680800D01*
X201473000Y-90171000D02*
X201473000Y-88720700D01*
X184200000Y-89382600D02*
X185625300Y-89382600D01*
X200203000Y-90171000D02*
X200203000Y-91621300D01*
X199647700Y-92176600D02*
X200203000Y-91621300D01*
X188419300Y-92176600D02*
X199647700Y-92176600D01*
X185625300Y-89382600D02*
X188419300Y-92176600D01*
X159990000Y-83980000D02*
X160990300Y-83980000D01*
X166641100Y-78329200D02*
X160990300Y-83980000D01*
X185231100Y-78329200D02*
X166641100Y-78329200D01*
X187569000Y-80667100D02*
X185231100Y-78329200D01*
X187569000Y-88295700D02*
X187569000Y-80667100D01*
X189925900Y-90652600D02*
X187569000Y-88295700D01*
X193600000Y-90652600D02*
X189925900Y-90652600D01*
X159990000Y-89980000D02*
X160990300Y-89980000D01*
X184200000Y-79222600D02*
X182774700Y-79222600D01*
X182499200Y-78947100D02*
X182774700Y-79222600D01*
X168894400Y-78947100D02*
X182499200Y-78947100D01*
X160990300Y-86851200D02*
X168894400Y-78947100D01*
X160990300Y-89980000D02*
X160990300Y-86851200D01*
X206553000Y-92507400D02*
X207924000Y-93878400D01*
X206553000Y-90171000D02*
X206553000Y-92507400D01*
X205283000Y-92311100D02*
X205384000Y-92412100D01*
X205283000Y-90171000D02*
X205283000Y-92311100D01*
X205384000Y-93878400D02*
X205384000Y-92412100D01*
X204013000Y-92709400D02*
X202844000Y-93878400D01*
X204013000Y-90171000D02*
X204013000Y-92709400D01*
X202561100Y-91621300D02*
X200304000Y-93878400D01*
X202743000Y-91621300D02*
X202561100Y-91621300D01*
X202743000Y-90171000D02*
X202743000Y-91621300D01*
X157169700Y-81460000D02*
X157689700Y-81980000D01*
X154940000Y-81460000D02*
X157169700Y-81460000D01*
X159990000Y-81980000D02*
X157689700Y-81980000D01*
D35*
X172696900Y-71726400D02*
X174071700Y-73101200D01*
X162214600Y-71726400D02*
X172696900Y-71726400D01*
X160966800Y-72974200D02*
X162214600Y-71726400D01*
X159893000Y-72974200D02*
X160966800Y-72974200D01*
X175463000Y-73101200D02*
X174071700Y-73101200D01*
M02*
