M48
;DRILL file {KiCad 4.0.2-stable} date viernes, 29 '29e' abril '29e' 2016, 11:47:01
;FORMAT={2:4/ absolute / inch / suppress leading zeros}
FMAT,2
INCH,TZ
T1C0.016
T2C0.028
T3C0.032
T4C0.040
%
G90
G05
M72
T1
X58550Y-34120
X61257Y-31469
X61286Y-30542
X62023Y-34586
X65298Y-32696
X69907Y-31610
X70039Y-32364
X73350Y-31686
X73551Y-32174
X74171Y-33682
X74233Y-34728
X74855Y-32867
X75096Y-32284
X77094Y-31689
X77139Y-34620
X77449Y-35455
X78566Y-33829
X81316Y-32390
X81540Y-32614
T2
X61790Y-29901
X65790Y-29901
T3
X60950Y-28730
X61950Y-28730
X62950Y-28730
T4
X50210Y-30510
X50210Y-31510
X50210Y-32510
X50210Y-33510
X50210Y-34510
X50210Y-35510
X50220Y-36930
X51220Y-36930
X52220Y-36930
X53220Y-36930
X54220Y-36930
X55220Y-36930
X56220Y-36930
X57220Y-36930
X58220Y-36930
X59220Y-36930
X60220Y-36930
X60500Y-33500
X60500Y-34500
X60500Y-35500
X61220Y-36930
X67650Y-28810
X67650Y-29810
X69080Y-28780
X69080Y-29780
X70330Y-36960
X71330Y-36960
X72330Y-36960
X73330Y-36960
X74330Y-36960
X75330Y-36960
X76330Y-36960
X77330Y-36960
X78860Y-36960
X79860Y-36960
X80860Y-36960
X81860Y-36960
X82860Y-36960
X83840Y-30490
X83840Y-31490
X83840Y-32490
X83840Y-33490
X83840Y-34490
X83840Y-35490
X83860Y-36960
T0
M30
